<svg width="50" height="30" viewBox="29 29 51 31" fill="none" xmlns="http://www.w3.org/2000/svg">
<path d="M79.4057 34.1607C79.4057 33.2969 79.3229 32.4331 79.1522 31.5951L78.8522 30.1054C78.8419 30.0433 78.785 30.002 78.7281 30.002H64.7567C64.6842 30.002 64.6273 30.0589 64.6273 30.1313V40.6678C64.6273 41.3196 64.586 41.9662 64.498 42.6076C64.4877 42.6852 64.4101 42.7369 64.3325 42.7214C60.5358 41.7179 57.7684 38.2522 57.7684 34.1607V30.1313C57.7684 30.0589 57.7115 30.002 57.6391 30.002H33.2292C33.1827 30.002 33.1413 30.0278 33.1154 30.064L32.5826 30.9951C30.8963 33.9176 30.0015 37.2643 30.0015 40.6627C30.0015 51.3286 38.6605 60.003 49.2904 60.003C57.5615 60.003 64.8394 54.7425 67.5137 47.0301C67.5292 46.9836 67.5706 46.9525 67.6223 46.9474C74.2071 46.4249 79.4057 40.8903 79.4057 34.1555V34.1607ZM49.2904 56.0253C40.8382 56.0253 33.9637 49.1302 33.9637 40.6627C33.9637 38.366 34.4758 36.1056 35.4535 34.0469C35.4742 34.0004 35.5207 33.9745 35.5724 33.9745H53.8009V34.1555C53.8009 40.0782 57.7994 45.0904 63.2928 46.5543C63.3704 46.5749 63.4118 46.6577 63.3807 46.7301C60.9961 52.301 55.5027 56.0253 49.2904 56.0253ZM68.6465 42.7731C68.5586 42.7938 68.481 42.7214 68.4913 42.6334C68.5586 41.9817 68.5896 41.3196 68.5896 40.6627V34.0986C68.5896 34.0262 68.6465 33.9693 68.7189 33.9693H75.4382V34.1504C75.4382 38.3298 72.5364 41.842 68.6465 42.7731Z" fill="#009947"/>
</svg>
